<svg width="32" height="32" viewBox="0 0 32 32" fill="none" xmlns="http://www.w3.org/2000/svg">
<path d="M21.3333 16.8894L7.70269 25.976C7.60229 26.0428 7.48566 26.0811 7.36521 26.0869C7.24476 26.0927 7.125 26.0657 7.01869 26.0087C6.91237 25.9518 6.82349 25.8671 6.76151 25.7637C6.69952 25.6603 6.66675 25.5419 6.66669 25.4214V6.57871C6.66675 6.45812 6.69952 6.3398 6.76151 6.23636C6.82349 6.13293 6.91237 6.04824 7.01869 5.99132C7.125 5.9344 7.24476 5.90738 7.36521 5.91315C7.48566 5.91891 7.60229 5.95723 7.70269 6.02404L21.3333 15.1107V6.66671C21.3333 6.31308 21.4738 5.97395 21.7239 5.7239C21.9739 5.47385 22.313 5.33337 22.6667 5.33337C23.0203 5.33337 23.3594 5.47385 23.6095 5.7239C23.8595 5.97395 24 6.31308 24 6.66671V25.3334C24 25.687 23.8595 26.0261 23.6095 26.2762C23.3594 26.5262 23.0203 26.6667 22.6667 26.6667C22.313 26.6667 21.9739 26.5262 21.7239 26.2762C21.4738 26.0261 21.3333 25.687 21.3333 25.3334V16.8894Z" fill="white"/>
</svg>
