<svg width="16" height="16" viewBox="0 0 16 16" fill="none" xmlns="http://www.w3.org/2000/svg">
<path d="M0.659755 9.545C0.444063 8.52629 0.444063 7.47371 0.659755 6.455C1.49226 6.5525 2.21976 6.27725 2.45676 5.70425C2.69451 5.1305 2.37575 4.42175 1.71725 3.902C2.28503 3.02925 3.02925 2.28503 3.902 1.71725C4.421 2.375 5.1305 2.6945 5.70425 2.45675C6.278 2.219 6.55325 1.49225 6.455 0.659751C7.47371 0.444059 8.5263 0.444059 9.545 0.659751C9.4475 1.49225 9.72275 2.21975 10.2958 2.45675C10.8695 2.6945 11.5783 2.37575 12.098 1.71725C12.9708 2.28503 13.715 3.02925 14.2828 3.902C13.625 4.421 13.3055 5.1305 13.5433 5.70425C13.781 6.278 14.5078 6.55325 15.3403 6.455C15.5559 7.47371 15.5559 8.52629 15.3403 9.545C14.5078 9.4475 13.7803 9.72275 13.5433 10.2958C13.3055 10.8695 13.6243 11.5783 14.2828 12.098C13.715 12.9708 12.9708 13.715 12.098 14.2828C11.579 13.625 10.8695 13.3055 10.2958 13.5433C9.722 13.781 9.44675 14.5078 9.545 15.3403C8.5263 15.5559 7.47371 15.5559 6.455 15.3403C6.5525 14.5078 6.27725 13.7803 5.70425 13.5433C5.1305 13.3055 4.42175 13.6243 3.902 14.2828C3.02925 13.715 2.28503 12.9708 1.71725 12.098C2.375 11.579 2.69451 10.8695 2.45676 10.2958C2.21901 9.722 1.49226 9.44675 0.659755 9.545ZM2.00001 8.1575C2.82501 8.38625 3.50525 8.909 3.84275 9.722C4.1795 10.5358 4.06775 11.387 3.64625 12.131C3.71825 12.2075 3.7925 12.2818 3.869 12.3538C4.61375 11.9323 5.46425 11.8212 6.27801 12.1572C7.091 12.4948 7.61375 13.175 7.8425 14C7.9475 14.003 8.0525 14.003 8.1575 14C8.38625 13.175 8.909 12.4948 9.722 12.1572C10.5358 11.8205 11.387 11.9323 12.131 12.3538C12.2075 12.2818 12.2818 12.2075 12.3538 12.131C11.9323 11.3862 11.8213 10.5358 12.1573 9.722C12.4948 8.909 13.175 8.38625 14 8.1575C14.003 8.0525 14.003 7.9475 14 7.8425C13.175 7.61375 12.4948 7.091 12.1573 6.278C11.8205 5.46425 11.9323 4.613 12.3538 3.869C12.2815 3.7928 12.2072 3.71852 12.131 3.64625C11.3863 4.06775 10.5358 4.17875 9.722 3.84275C8.909 3.50525 8.38625 2.825 8.1575 2C8.05252 1.99722 7.94749 1.99722 7.8425 2C7.61375 2.825 7.091 3.50525 6.27801 3.84275C5.46425 4.1795 4.613 4.06775 3.869 3.64625C3.7925 3.71825 3.71825 3.7925 3.64625 3.869C4.06775 4.61375 4.17875 5.46425 3.84275 6.278C3.50525 7.091 2.82501 7.61375 2.00001 7.8425C1.99701 7.9475 1.99701 8.0525 2.00001 8.1575ZM8 10.25C7.40327 10.25 6.83097 10.0129 6.40901 9.59099C5.98706 9.16903 5.75 8.59674 5.75 8C5.75 7.40326 5.98706 6.83097 6.40901 6.40901C6.83097 5.98705 7.40327 5.75 8 5.75C8.59674 5.75 9.16904 5.98705 9.59099 6.40901C10.013 6.83097 10.25 7.40326 10.25 8C10.25 8.59674 10.013 9.16903 9.59099 9.59099C9.16904 10.0129 8.59674 10.25 8 10.25ZM8 8.75C8.19892 8.75 8.38968 8.67098 8.53033 8.53033C8.67099 8.38968 8.75 8.19891 8.75 8C8.75 7.80109 8.67099 7.61032 8.53033 7.46967C8.38968 7.32902 8.19892 7.25 8 7.25C7.80109 7.25 7.61033 7.32902 7.46967 7.46967C7.32902 7.61032 7.25 7.80109 7.25 8C7.25 8.19891 7.32902 8.38968 7.46967 8.53033C7.61033 8.67098 7.80109 8.75 8 8.75Z" fill="white"/>
</svg>
